<svg xmlns="http://www.w3.org/2000/svg" width="405" height="245" viewBox="0 0 405 245">
  <g id="Group_6" data-name="Group 6" transform="translate(-387 -882)">
    <g id="Group_1" data-name="Group 1">
      <circle id="Ellipse_1" data-name="Ellipse 1" cx="32.5" cy="32.5" r="32.5" transform="translate(387 882)" fill="#c72d39"/>
      <circle id="Ellipse_2" data-name="Ellipse 2" cx="32.5" cy="32.5" r="32.5" transform="translate(472 882)" fill="#c72d39"/>
      <circle id="Ellipse_3" data-name="Ellipse 3" cx="32.5" cy="32.5" r="32.5" transform="translate(557 882)" fill="#c72d39"/>
      <circle id="Ellipse_4" data-name="Ellipse 4" cx="32.5" cy="32.5" r="32.5" transform="translate(642 882)" fill="#c72d39"/>
      <circle id="Ellipse_5" data-name="Ellipse 5" cx="32.5" cy="32.5" r="32.5" transform="translate(727 882)" fill="#c72d39"/>
    </g>
    <g id="Group_2" data-name="Group 2" transform="translate(0 90)">
      <circle id="Ellipse_1-2" data-name="Ellipse 1" cx="32.5" cy="32.5" r="32.5" transform="translate(387 882)" fill="#c72d39"/>
      <circle id="Ellipse_2-2" data-name="Ellipse 2" cx="32.5" cy="32.5" r="32.5" transform="translate(472 882)" fill="#c72d39"/>
      <circle id="Ellipse_3-2" data-name="Ellipse 3" cx="32.5" cy="32.5" r="32.5" transform="translate(557 882)" fill="#c72d39"/>
      <circle id="Ellipse_4-2" data-name="Ellipse 4" cx="32.5" cy="32.5" r="32.5" transform="translate(642 882)" fill="#c72d39"/>
      <circle id="Ellipse_5-2" data-name="Ellipse 5" cx="32.5" cy="32.5" r="32.5" transform="translate(727 882)" fill="#c72d39"/>
    </g>
    <g id="Group_3" data-name="Group 3" transform="translate(0 180)">
      <circle id="Ellipse_1-3" data-name="Ellipse 1" cx="32.5" cy="32.5" r="32.5" transform="translate(387 882)" fill="#c72d39"/>
      <circle id="Ellipse_2-3" data-name="Ellipse 2" cx="32.5" cy="32.5" r="32.5" transform="translate(472 882)" fill="#c72d39"/>
      <circle id="Ellipse_3-3" data-name="Ellipse 3" cx="32.5" cy="32.5" r="32.5" transform="translate(557 882)" fill="#c72d39"/>
      <circle id="Ellipse_4-3" data-name="Ellipse 4" cx="32.5" cy="32.5" r="32.5" transform="translate(642 882)" fill="#c72d39"/>
      <circle id="Ellipse_5-3" data-name="Ellipse 5" cx="32.5" cy="32.5" r="32.5" transform="translate(727 882)" fill="#c72d39"/>
    </g>
  </g>
</svg>
